Girl Power to the Rescue!

It's 'All For One and One For All' as Barbie and her friends co-star in 'Barbie And The Three Musketeers'! Join Barbie as Corinne, a young country girl who pursues her dream in Paris - to become a Musketeer!

There she meets three girls who secretly share the same dream. Can the girls dance at the masquerade ball, transform in Musketeers costumes and save the prince - all without breaking a heel?

Come along on an exciting adventure that shows dreams really do come true!

Format : MPEG-4
Format profile : Base Media / Version 2
Codec ID : mp42
File size : 800 MiB
Duration : 1h 21mn
Overall bit rate : 1 380 Kbps
Encoded date : UTC 2009-10-02 04:39:56
Tagged date : UTC 2009-10-02 08:38:39
Writing application : HandBrake 0.9.3 2008112300

Video
ID : 1
Format : AVC
Format/Info : Advanced Video Codec
Format profile : Main@L4.0
Format settings, CABAC : Yes
Format settings, ReFrames : 3 frames
Codec ID : avc1
Codec ID/Info : Advanced Video Coding
Duration : 1h 21mn
Bit rate mode : Variable
Bit rate : 1 216 Kbps
Width : 720 pixels
Height : 576 pixels
Display aspect ratio : 16:9
Frame rate mode : Variable
Frame rate : 25.000 fps
Minimum frame rate : 12.500 fps
Maximum frame rate : 48.980 fps
Standard : PAL
Resolution : 24 bits
Colorimetry : 4:2:0
Scan type : Progressive
Bits/(Pixel*Frame) : 0.117
Stream size : 705 MiB (88%)
Writing library : x264 core 65


Audio
ID : 2
Format : AAC
Format/Info : Advanced Audio Codec
Format version : Version 4
Format profile : LC
Format settings, SBR : No
Codec ID : 40
Duration : 1h 21mn
Bit rate mode : Variable
Bit rate : 160 Kbps
Maximum bit rate : 213 Kbps
Channel(s) : 2 channels
Channel positions : L R
Sampling rate : 48.0 KHz
Resolution : 16 bits
Stream size : 92.5 MiB (12%)
Language : English
Encoded date : UTC 2009-10-02 04:39:57
Tagged date : UTC 2009-10-02 08:38:38 